<?xml version="1.0" encoding="UTF-8"?>
<svg id="Ebene_1" data-name="Ebene 1" xmlns="http://www.w3.org/2000/svg" viewBox="0 0 362.4 424.8">
  <defs>
    <style>
      .cls-1 {
        fill: #fcfcfc;
      }

      .cls-2 {
        fill: #6ac5b3;
      }

      .cls-3 {
        fill: #23386d;
      }

      .cls-4 {
        fill: #23386e;
      }

      .cls-5 {
        fill: #fefefe;
      }
    </style>
  </defs>
  <rect class="cls-1" width="362.4" height="424.8"/>
  <path class="cls-3" d="M227.85,4.08s-.01.56.39.69c1.21.38,3.55.25,4.73.52.18.04.13.41.34.47,2.14.57,4.43.94,6.62,1.45.09.02.63.92,1.6.48l-.48.47c.59.1,1.45-.14,1.98,0,.21.05.9,1.16,1.07,1.19.36.07.76-.07,1.1,0,.28.06,2.33,1.4,2.49,1.43,4.91,1.12,9.69,4.86,14.38,7.28,1.57.81,3.24,2.04,4.8,3.12.3.21,1.89,1.3,1.93,1.41s-.2.41-.18.43c.09.05.56-.06.9.07.16.06,2.11,1.94,2.59,2.33,3.96,3.2,8.35,7.66,12.03,11.59.15.16.08.59.3.76.1.07.47-.15.49-.12.09.15-.25.48-.19.68.04.13,1.33.73,1.53,1.08.23.41.18.9.57,1.41.82,1.09,1.52,1.15,2.18,2.38,1.01,1.9,2.16,2.84,2.94,4.93.14.38,1.04.53,1.08.58.14.17-.02.57.06.73.97,1.83,2.6,3.87,3.5,5.77.18.39-.27,1.22.56.66v1.44s.48-.24.48-.24c-.25.57.44.75.48.89.66,2.95,2.47,4.98,3.13,8.3.03.15,1.32,2,1.43,2.49.43,1.96.63,2.66,1.42,4.58.4.96.01,2.25.16,2.7.12.36,1.04,1.05,1.05,1.12.16.75-.16,1.83.01,2.54.04.18.43.15.47.33.94,4.16,1.08,8.6,1.94,12.89l-.02,71.86c1.42-.21,2.86.19,4.19.25,3.66.15,6.95-.21,10.55.48,5.73,1.09,13.31,4.53,18.01,7.76.22.15.59.77.65.79.34.14.78.01.9.07.03.01-.26.36-.02.59s.76.31,1.1.6c.36.32,1.07,1.34,1.14,1.38,2.28,1.36,5.79,5.19,7.36,7.43,1.38,1.97,2.12,3.73,3.22,5.73.4.72,1.43,1.13,1.11,2.12l.48-.12-.24.72c1.13-.2.56.44.79,1.25.17.59.86,1.47.88,1.56.35,1.6.37,3.17,1.36,4.8.77,60.87.1,121.84.34,182.74-.13,2.95-1.13,7.36-2.24,9.88-.03.07-.36.06-.4.23-.18.77.47,1.48-.73,1.28.38.62-.2,1.19-.49,1.74-.73,1.4-1.65,2.84-2.47,4.41-.38.74-1.35,1.78-2.08,2.78-.16.22-.86.67-.88.73-.27.72.36,1.33-.79,1.14l.24.47c-.72,0-1.4.5-.95,1.21-.06.09-.31-.21-.43-.18s-1.61,1.57-1.67,1.67c-.05.1.2.41.18.43h-.73s.24.48.24.48c-.99,0-1.58,1.41-2.47,1.84-.32.16-.82.03-.88.08-.1.09.08.88,0,.96-.09.08-.79-.13-.94.03-.09.09.06.56-.04.66-.12.11-.58-.03-.87.11-.12.06-1.56,1.58-1.83,1.76-.24.16-.69.1-1.01.31-1,.65-1.6,1.7-2.75,1.46l.24.48c-1.18-.32-1.22.8-2.4.48l.24.48c-.8-.34-.98.43-1.14.47-1.12.31-1.25.59-2.18.89-.61.2-2.42.27-2.8.79-.09.13.14.47.12.49-.26.16-2.13-.11-2.64,0l.24.48c-.73.02-1.26-.25-1.62.46-69.78.42-139.72.44-209.49,0-.27-.34-.42-.56-.92-.46l.24-.48c-1.25.33-1.19-.43-1.84-.93-.42-.33-2.74-2.03-2.88-2.27s-.01-.61-.13-.82c-.1-.18-.63-.2-.79-.53s-.33-.88-.51-1.29c-1.29-2.95-1.19-8.27.33-11.37.45-.92.92-1.14,1.56-1.75.8-.76,1.35-2.09,2.35-2.15l-.24-.48c.78.31.93-.35,1.04-.4,1.87-.86,3.69-1.52,5.79-2.01l199.29-.03c.58-1.12,1.21-.54,2.21-.66.44-.05.32-.46.5-.5,2.5-.53,4.67-1.52,6.78-3.29,2.37-1.98,4.36-4.54,5.55-7.07.48-1.01,1.67-3.04,1.89-3.96.13-.55-.13-1.32,0-1.83.06-.25.57-.23.69-.56.35-.99.3-5.84.29-7.18-.43-53.93.23-107.93,0-161.91.07-.6-.94-2.07-.97-2.19-.44-2.05-.91-4.31-2.08-6.29-.14-.24-.87-.64-.96-.82-.18-.38-.13-.97-.3-1.22-.16-.24-.65-.07-.72-.15-.11-.13.04-.74-.1-1.13-.06-.16-2.2-2.17-2.57-1.98l.24-.48c-1.02.3-1.11-.61-1.71-1.04-1.74-1.25-3.34-2.12-5.32-2.56-.18-.04-.15-.43-.33-.47-.57-.14-1.38.08-2,0l.24-.48c-1.56-.01-3.13.1-4.67-.25l-213.83.25.24.48h-2.64s.24.48.24.48c-.9-.4-1.25.44-1.37.47-3.14.81-6.25,3.12-8.16,5.75-.14.19-.67.47-.71.56-.25.55.3,1.08-.79.89l.24.47c-1.19-.12-.47.2-.63.73-.18.59-.77.71-.99,1.12-.29.54-1.87,4.7-1.92,4.98-.2,1.01.17,2.75-.05,3.57-.05.2-.32.18-.48.16l.5.58c-.44,4.04.51,9.07,0,12.99-.06.44-.45.31-.49.51-.28,1.17.02,2.54-.63,3.68-.73,1.3-3.07,3.79-4.36,4.78-.62.48-1.44,1.01-2.2,1.23l.23.46c-.55.07-1.24-.12-1.75,0-.09.02-1.25.94-1.47.97-1.62.22-3.73-.2-5.41-.02l.24-.48c-.77.35-1.01-.45-1.13-.48-.41-.1-1.33.1-1.51,0-.03-.02.28-.37.01-.59-.38-.31-1.54-.63-2.11-1.01-.18-.12-2.29-1.94-2.38-2.07-.94-1.53-1.71-3.45-2.68-4.87l-.05-21.07.74-.13c-.85-1.34.21-2.29.43-3.29.18-.84.43-1.51.53-1.91.16-.66-.13-1.6.02-2.3.04-.21.9-.63.94-.83.1-.51-.1-1.1.01-1.58.02-.1.93-1.43.95-1.53.08-.32-.02-.7,0-1.04l.48.24c-.43-1.25.44-1.4.57-1.68.15-.3.08-.98.37-1.29.21-.23.59-.09.69-.19.14-.14,1.23-2.96,1.57-3.48,1.52-2.34,3.99-4.95,5.98-7.05.36-.38.45-1.38,1.37-1.19l-.23-.47c.76.2.89-.62,1.27-.89.67-.46,1.61-.72,2.32-1.66.24-.32-.01-.56.01-.57.13-.07.53.07.88-.09,1.6-.75,4.11-3.23,5.66-3.92.3-.13.58-.09.89-.08l-.24-.48c.77.35,1.02-.45,1.13-.48.75-.17,1.35-.46,1.44-.48.94-.2,4.36-1.14,5.11-1.57.18-.1.17-.54.41-.59.39-.1.92.1,1.35,0,.18-.04.15-.43.33-.47,2.8-.63,5.96-1.02,9.06-1.46,1.25-.18,8.23.32,8.53.01v-69.69c.53-2.63.16-5.92.72-8.35.04-.19.46-.15.45-.26-.12-2.17.22-1.78.49-3.39.22-1.26.23-3.38.5-4.5.04-.18.43-.14.47-.33.18-.8.34-3.02.52-3.53.11-.31.55-.28.68-.58.39-.9.64-2.69,1.05-3.82.28-.77,1.17-2.59,1.35-3.35.12-.5-.12-1.21-.01-1.62.07-.26.56-.01.76-.27.36-.49.11-1.86.25-2,.08-.08.53.06.64-.05.13-.12.89-2.92,1.02-3.38,1.4-1.37,1.7-3.5,2.6-5.06.15-.26.71-.32.86-.63.22-.46.02-.92.11-1.27.07-.25.53-.28.7-.55,1.78-2.87,3.43-5.66,5.4-8.41,2.23-3.12,4.96-6.3,7.76-9.19.24-.25.73-.33.94-.56.6-.67,1-2.66,2.23-2.58l-.23-.46c.21.05,1.32-.49,1.37-.55.14-.17.02-.49.09-.61.03-.04.45.08.98-.3.71-.51,1.35-1.77,2.13-2.45.3-.26,1.09-.56,1.41-.83.72-.61,1.53-1.99,2.42-1.98l-.24-.48c.25-.02.55.07.78-.01.3-.1,3.28-2.48,3.68-2.85.43-.41.2-.99,1.3-.73l-.24-.48c.97.43,1.19-.81,1.63-.95,1.32-.44,1.11-.47,2.33-1.21.61-.37,2.4-.87,1.8-1.43.69-.1,1.46-.61,2-.88,1.91-.96,3.94-1.79,5.99-2.72.16-.07.26-.81,1.13-.48l-.24-.48h1.44s-.24-.48-.24-.48c.96.37,1.33-.32,1.52-.4,1.23-.51,2.47-.79,3.52-1.21.89-.35,1.31-1.44,2.64-1.04l-.24-.48c.41-.04.89.09,1.28,0,2.25-.53,5.07-1.79,7.73-2.38,1.07-.24,3.25-.19,4.27-.53.33-.11.3-.62.56-.69.94-.24,2.75.24,3.75,0,.18-.04.15-.43.33-.47.57-.14,1.38.08,2,0l-.24-.48c.95.19,1.89-.19,2.76-.24,5.85-.33,13.58-.32,19.43-.01,1.29.07,2.82.65,3.57.75,1.05.14,2.4-.14,3.49-.02l-2.16.48c.69.14,4.03-.19,4.32,0Z"/>
  <path class="cls-2" d="M138.39,352.84s-.56,0-.69.38c-.27.82-.06,2.72-.42,3.91-.18.58-.95,2.19-1.04,2.59-.13.54.1,1.24-.02,1.82-.04.2-.9.63-.94.83-.1.51.1,1.13,0,1.58-.06.26-.65.27-.84.64s-.11.96-.29,1.39c-1.9,4.62-6.52,10.55-10.62,14.09-3.2,2.77-7.6,5.15-11.07,7.88-.5.4-.29,1.16-1.42.86l.24.48c-.31.08-1.42.45-1.6.56s-.45.69-.63.8c-.71.44-2.36.81-2.98,1.6-.45.58-1.69,1.4-2.57,1.98-2.48,1.62-5.13,3.12-7.47,4.75-.78.54-1.52,1.81-2.49,1.59l.24.48c-1.01-.32-1.02.54-1.54.86-.99.61-2.04,1.15-2.99,1.68-.47.26-1.21.64-.75,1.06-1-.28-.92.76-1.92.48l.24.48c-.63-.1-1.16.62-1.65.93-.37.23-.93.31-1.27.54-.83.55-1.59,1.87-2.6,1.66l.24.48c-.97-.14-1.8.91-2.61,1.41-.96.59-2.25,1.27-3.15,1.72l.23.46c-1.28.1-2.62,1.74-3.73,1.91-.65.1-3.18.13-3.77,0-.11-.02-1.43-1.18-1.7-1.34-.24-.14-1.24-.47-1.58-.58l.23-.46c-.66-.3-1.92-.9-2.55-1.3-2.93-1.82-5.45-3.92-8.33-5.82-3.47-2.28-6.78-4.35-10.41-6.72-.58-.38-1.12-1.29-1.98-1.04l.24-.48c-.97.29-.89-.35-1.22-.57-1.53-1.02-3.21-2.23-4.82-3.05-.53-.27-.92-.34-1.16-.46-.03-.01.25-.33.01-.59s-3.8-2.54-4.43-2.91c-.2-.12-.4-.12-.62-.1l.24-.48c-1.34.25-.78-.39-1.01-.65-.11-.13-.54-.12-.78-.3-2.42-1.79-4.86-3.14-7.21-4.9s-5.78-4.41-7.71-6.69c-.21-.24-1.4-2.43-1.81-2.76-.36-.28-1.08.15-.65-1.25-1.08.17-.54-.35-.79-.9-.05-.12-.7-.45-.81-.62-.54-.87-1.13-2.64-1.67-3.73-.47-.95-1.28-1.36-1.05-2.43l-.48.24c.41-.89-.46-1.29-.48-1.36-.81-3.67-2.17-7.49-2.9-11.45v-77.27c.67-.7.75-2.1,1.94-2.03l-.24-.48c.79.34.98-.43,1.14-.47,2.55-.67,5.54-1.04,8.26-2.01.37-.13.77-.17,1.16-.16l-.24-.48h2.4s-.24-.48-.24-.48h2.64s-.72-.48-.72-.48c.97.44,1.51-.46,1.6-.48,2.06-.48,4.36-.64,6.61-1.45.31-.11.64-1.19,1.86-.72l-.24-.48c.34-.03.72.07,1.04,0,1.64-.41,4.3-1.59,6.12-2.36,3.47-1.48,6.18-2.45,9.6-4.08.43-.21,1.33-.31,1.73-.64.27-.23-.04-.57-.01-.59.15-.08.71.08,1.03,0,.93-.24,3.23-1.72,4.33-2.3.47-.25,2.65-.99,2.75-1.1.11-.11-.03-.54.06-.63.12-.12.58.02.86-.11.12-.05.53-.79.61-.82.5-.18,4.22-1.8,4.44-2.06.19-.24-.19-.86.78-.65l-.24-.48c.83.27,1.2-.54,1.77-.87.6-.35,3.09-1.65,3.45-2.08.19-.22-.19-.87.78-.65l-.24-.48h5.4s-.12.48-.12.48c.97-.22.59.43.78.65.12.14,2.59,1.92,2.76,1.98.22.08.54-.01.78,0l-.24.48c1.14-.28,1.88,1.21,2.6,1.66s1.9.87,2.72,1.3c.55.29.49.97,1.63.64l-.24.48c.22-.03.42-.02.63.09,1.34.76,2.84,1.77,4.46,2.58,1.49.74,3.06,1.62,4.76,1.89-.5.86,1.18.97,1.72,1.23,1.17.56,2.33,1,3.48,1.49.12.05.39.76,1.28.4l-.24.48c.98-.44,1.51.46,1.6.48.75.17,1.4-.45,1.31.68,1.41.23,2.66.96,4,1.42,2.17.75,4.14,1.16,6.26,2.12.84.38,2.86,1.32,3.75,1.53,1.05.25,2.57.27,3.54.5.11.03.35.83,1.13.48l-.24.48c.68.1,1.61-.14,2.24,0,.19.05.06.44.51.49.77.1,1.73-.11,2.53-.02l-.72.47c1.02-.26,1.74.52,2.53.71,2.33.55,4.78.51,7.1,1.48.23.1.34.66.92.46l-.24.48c1.35-.27,1.19.77,1.58,1.43.1.17.45.19.52.32.14.24-.03.64.12.84.1.13.42.04.42.06v74.84h-.24s0-1.92,0-1.92h-.24c-.15.72.2,4.26,0,4.56Z"/>
  <path class="cls-4" d="M216.75,256.01c.06.03.06.36.23.4.45.11,1.04-.05,1.52,0l-.24.48c.89-.4,1.28.46,1.36.48.37.09,1.11-.09,1.28,0,.03.01-.28.37-.01.59.31.25,1.37.68,1.88,1.01s.84.43,1.17.64c.67.42,1.41,1.33,2.24,1.36l-.23.46c.92-.2.59.41.88.72.48.5,1.79,1.93,2.23,2.24.24.17.43.2.71.17l-.23.47c.2.01.51-.07.66.05.35.29,2.13,3.71,2.5,4.36.13.24.53.31.61.46.72,1.28,1.23,3.95,1.52,5.28.02.1,1.35,1.11,0,1.37v.23c.85-.11.35.91.48,1.52.04.19.44.06.49.51.13,1,.13,4.31,0,5.31-.06.44-.45.32-.49.51-.16.7.42,2.1-.48,2v.23c1.11-.09-.19,3-.5,3.66-.1.21-.26.22-.46.19l.47.24c-.21.43-.36,1.22-.55,1.61-.68,1.35-2.73,3.52-3.53,5.05-.18.35.02.74-.02.76-1.78,1.11-3.05,3.17-4.38,4.01-.18.12-.42.1-.63.09l.24.48c-.84-.24-.82.23-1.16.45-1.05.67-1.09.65-2.18,1.12-1,.43-.95,1.56-2.65,1.07l.48.47c-.59-.24-.76.45-.89.48-.42.09-.91-.08-1.34.01-.12.03-.32.66-.85.5l-.05,24.75c-1.16,1.91-1.58,2.23-3.27,3.37-.2.14-.26.62-.55.76-.56.27-1.22.01-1.8.13-.37.07-.63.41-.98.46-1.28.19-3.43-.23-4.73-.48-.2-.04-2.97-2.38-3.05-2.56-.43-.96-.4-2.26-1.41-2.86-.47-7.44.5-15.4-.03-22.77-.13-1.89-.39-1.05-1.53-1.31-.13-.03-2.19-.9-2.3-.99-.1-.09.04-.52-.06-.63-.08-.08-1.65-.55-2.17-.85-2.65-1.53-7.12-5.67-8.51-8.39-.26-.51.3-1.08-.79-.89.74-1.1-.84-1.36-.96-1.85-.2-.78-.13-.68-.4-1.34-.66-1.6-.68-2.64-1.04-4.32-.04-.18-.43-.14-.47-.33-.44-1.85-.02-10.41.48-12.38.05-.19.42-.16.47-.33.13-.54-.1-1.24.02-1.82.04-.2.9-.62.94-.83.09-.46-.11-1.53.03-1.73.12-.17.87.02,1.06-.24.13-.19-.01-1,.11-1.3s.59-.05.75-.29c.18-.26.12-.84.3-1.22.09-.19.81-.52.86-.74.08-.3-.09-.83.05-1,.04-.04.42,0,.68-.19,1.34-1,2.85-3.29,4.16-4.31.38-.3,2.07-1.26,2.62-1.6.7-.42,1.57-.85,2.34-1.14l-.23-.46c.89.36,1.16-.35,1.28-.4.52-.22,2.26-.98,2.49-1.04.72-.17,1.83.16,2.55-.01.18-.04.14-.42.33-.47,1.72-.42,5.54-.37,7.39-.24.61.04,5.09.68,5.33.79Z"/>
  <path class="cls-5" d="M159.73,164.55v-68.25c.98-1.81.54-4.44.97-6.18.02-.08.86-1.15.93-1.32.38-.93-.05-1.9.02-1.97.07-.06.61.08.7-.01.13-.14-.06-.91.03-1.26.28-1.2,1.83-4.86,2.47-6.33.06-.14,1.14-1.09,1.15-1.17.02-.3-.21-.54-.26-.81,1.1.19.53-.37.8-.89.23-.46,1.62-2.68,1.92-3.12.21-.31,1.32-1.03,1.47-1.29.17-.31-.09-.71.37-1.24.32-.37,1.06-.56,1.15-.73.12-.21-.02-.6.13-.82.18-.27,4.24-4.44,4.54-4.56s.59-.09.9-.07l-.24-.48c.77.18,1.09-1.1,1.76-1.6.19-.14.63-.01.81-.15.63-.48.95-1.68,2-1.36l-.24-.48h1.44s-.2-.44-.2-.44c.67-.09,1.11-.92,1.48-1.17,1.05-.72,2.82-1.18,3.94-1.58.09-.03.52-.84.71-.88.47-.1,1.02.03,1.51-.01l-.24-.47c.63.19,1.19-.61,1.27-.64,1.06-.43,2.63-.68,3.81-1.07,1.29-.43,1.6-.2,2.67-.46.92-.22,2.59-.76,3.45-.95,2.86-.65,10.98-.91,14.12-.5.44.06.31.45.51.49.88.21,1.72.26,2.64.48.6.14,2.72-.15,2.95,0l-.24.48c.69.09,1.59-.14,2.23.01.17.04.19.38.36.45,1.2.45,2.8.62,3.87,1.12,1.3.62.35.63,2.24,1.07.07.02,1,.93,1.07.94,2.95.69,5.64,2.95,8.03,4.65.98.7,2.2,1.43,3.07,2.08.07.05-.34,1.05.95.96l-.23.47c1.66.22,2.35,2.87,3.83,3.13l-.24.47c.2.01.51-.06.66.05.23.16.73,1.56.78,1.63.03.04.38-.45.86.33.19.31.17.67.34.94,1.15,1.86,1.63,1.87,2.47,4.19.02.05.72.51.88.73,1.32,1.83,1.7,3.18,2.16,5.16.06.27.64.25.7.54.05.24-.25.61-.22.91,0,.07.93.94.96,1.05.12.53-.05,1.19.01,1.75l.48-.24v1.44s.48-.24.48-.24c1,4.04,1.6,8.18,2.17,12.34v64.89h-99.06Z"/>
  <path class="cls-5" d="M72.85,302.54c.59.23,1.39,1.88,1.02,2.57l.48-.24v55.89l-.48-.24c.37.69-.43,2.34-1.02,2.57-.86.34-2.67-.11-3.67.09-.34-.45-1.56-.62-1.71-1.04-.13-.37,0-.71-.08-.96-.09-.27-.57-.15-.6-.76l.13-56.02.48.24c-.51-.47.88-2.1,1.14-2.15.5-.1,3.93-.09,4.32.06Z"/>
</svg>